<?xml version="1.0" encoding="UTF-8"?>
<svg version="1.1" xmlns="http://www.w3.org/2000/svg" width="1024" height="1024">
<path d="M0 0 C337.92 0 675.84 0 1024 0 C1024 337.92 1024 675.84 1024 1024 C686.08 1024 348.16 1024 0 1024 C0 686.08 0 348.16 0 0 Z " fill="#0C0C0D" transform="translate(0,0)"/>
<path d="M0 0 C1.24705719 -0.00315216 2.49411438 -0.00630432 3.77896118 -0.009552 C5.159119 -0.00775795 6.5392765 -0.00570596 7.91943359 -0.00341797 C9.34264136 -0.00409252 10.76584902 -0.00506381 12.1890564 -0.00631714 C15.19375693 -0.00779746 18.1984279 -0.00563588 21.203125 -0.00097656 C24.98276343 0.00460901 28.76232978 0.00141836 32.54196548 -0.0044136 C46.2934607 -0.02246487 60.0365588 0.00268987 73.77880859 0.57470703 C74.73518219 0.6134494 75.69155579 0.65219177 76.6769104 0.69210815 C83.06385144 1.00037488 83.06385144 1.00037488 84.19287109 2.12939453 C84.32384578 4.63547504 84.38968224 7.11530816 84.4140625 9.62327576 C84.42550041 10.41745079 84.43693832 11.21162582 84.44872284 12.02986676 C84.48572246 14.71200915 84.51519919 17.39417846 84.54443359 20.07641602 C84.56868942 21.99135119 84.59318015 23.90628339 84.6178894 25.82121277 C84.8347223 43.33311786 84.95573031 60.84614763 85.05218506 78.35908413 C85.1184861 90.13682016 85.21307773 101.91291021 85.37939453 113.68969727 C85.52442203 123.95941532 85.61662424 134.22799187 85.64486885 144.49872071 C85.6615414 149.93522521 85.70404407 155.36868858 85.80938721 160.80425835 C85.90762505 165.9246957 85.93454231 171.04066599 85.90777969 176.16192818 C85.91030124 178.03657861 85.93835379 179.91140349 85.99441147 181.78521729 C86.385529 195.56300036 86.385529 195.56300036 82.72450447 199.84804273 C79.15495387 202.92623466 75.21924938 205.13313638 71.00344658 207.20204556 C68.44939348 208.51019235 66.1651334 210.13547133 63.84521484 211.81689453 C63.06243164 212.36531006 62.27964844 212.91372559 61.47314453 213.47875977 C60.7000293 214.02346924 59.92691406 214.56817871 59.13037109 215.12939453 C57.86821777 216.01703491 57.86821777 216.01703491 56.58056641 216.92260742 C54.90035905 218.10531338 53.22080993 219.28895515 51.54199219 220.47363281 C49.39396029 221.98765821 47.24135253 223.49490208 45.08740234 225.00048828 C34.02463421 232.40086292 34.02463421 232.40086292 25.19287109 242.12939453 C24.72472715 246.19713267 24.82251554 250.28763411 24.81787109 254.37939453 C24.79337891 255.49958984 24.76888672 256.61978516 24.74365234 257.77392578 C24.72120722 264.11093334 24.73469791 269.31869315 29.19287109 274.12939453 C31.93747057 276.59150465 34.8581005 278.70960391 37.88037109 280.81689453 C38.72398193 281.42138428 39.56759277 282.02587402 40.43676758 282.64868164 C43.01261264 284.48946671 45.60113623 286.31107262 48.19287109 288.12939453 C49.6595094 289.16776178 51.12568358 290.20678503 52.59130859 291.24658203 C53.24226501 291.70552353 53.89322144 292.16446503 54.56390381 292.63731384 C55.94099766 293.61419519 57.31249929 294.59905835 58.67565918 295.59529114 C62.31259664 298.22637575 65.91459725 300.56136326 69.90820312 302.61694336 C75.81759978 305.86731188 81.81985083 309.22473932 84.15829468 315.87490845 C85.56104983 323.80242231 84.96836413 331.76144628 84.50537109 339.75439453 C84.4406317 342.11616559 84.3839398 344.47817149 84.33544922 346.84033203 C83.08908604 393.60324154 75.90465873 440.41234384 40.65771484 474.00048828 C21.41565849 491.70492494 -2.11683078 501.70120887 -27.36962891 507.50439453 C-28.38488647 507.73811768 -28.38488647 507.73811768 -29.4206543 507.9765625 C-68.0538807 516.14780578 -113.30683144 509.10381707 -146.61962891 487.81689453 C-176.90938089 467.79285243 -193.63917207 439.27553976 -201.40478516 404.10693359 C-204.47459917 389.01864869 -205.00707425 373.41600479 -205.18212891 358.06689453 C-205.23820313 356.14973633 -205.23820313 356.14973633 -205.29541016 354.19384766 C-205.30701172 352.96472656 -205.31861328 351.73560547 -205.33056641 350.46923828 C-205.35038574 349.3695874 -205.37020508 348.26993652 -205.390625 347.13696289 C-204.59307147 343.02605832 -203.05619062 341.72777761 -199.80712891 339.12939453 C-197.05003402 338.63332632 -194.9085358 338.44286172 -192.15869141 338.48242188 C-191.02847565 338.46927948 -191.02847565 338.46927948 -189.87542725 338.45587158 C-187.39373572 338.43392955 -184.91383738 338.44841015 -182.43212891 338.46533203 C-180.70247049 338.46196236 -178.97281439 338.45710848 -177.24316406 338.45083618 C-173.62167777 338.44347195 -170.00080893 338.4541554 -166.37939453 338.47753906 C-161.74194186 338.50602714 -157.10593599 338.48962068 -152.46853638 338.45967674 C-148.89792011 338.44159127 -145.32764573 338.4473674 -141.75701904 338.4603157 C-140.04742257 338.46364629 -138.33779484 338.45957482 -136.62823486 338.44791794 C-134.23651164 338.43518782 -131.84711658 338.45461241 -129.45556641 338.48242188 C-128.75204041 338.47230072 -128.0485144 338.46217957 -127.32366943 338.45175171 C-123.47527305 338.53446972 -121.90340261 339.05098545 -118.87905884 341.51412964 C-115.6564184 345.58186295 -115.69771163 349.23498918 -115.59619141 354.27001953 C-115.07249007 373.98745603 -114.42739096 396.37956635 -100.83837891 412.20361328 C-88.94018488 423.48401647 -73.31302026 426.78246941 -57.40087891 426.46923828 C-44.20673729 425.79783031 -31.18715229 419.99667411 -21.99462891 410.50439453 C-4.43878721 388.65431818 -7.50185287 355.89657605 -7.50511372 329.5348531 C-7.50345996 325.11995983 -7.49030307 320.7050981 -7.47857666 316.29022217 C-7.45980829 308.6605129 -7.44803259 301.0308194 -7.44103813 293.40109062 C-7.43082681 282.36900137 -7.40873853 271.33695984 -7.38365222 260.30489553 C-7.3431636 242.40013245 -7.31065302 224.4953648 -7.28393555 206.59057617 C-7.28233825 205.52140558 -7.28074094 204.45223498 -7.27909524 203.35066528 C-7.27749634 202.2800831 -7.27589744 201.20950091 -7.27425009 200.10647684 C-7.25150588 184.88828219 -7.22687231 169.67009216 -7.19995117 154.4519043 C-7.19805503 153.37889332 -7.19615888 152.30588234 -7.19420528 151.20035588 C-7.16247711 133.33766809 -7.12674079 115.47498965 -7.08890969 97.61231381 C-7.06584273 86.59871033 -7.04689845 75.58511324 -7.03324295 64.57149399 C-7.02374614 57.04244367 -7.01092257 49.5134041 -6.9954341 41.98436373 C-6.98663512 37.63586589 -6.97955254 33.28738141 -6.97679329 28.9388752 C-6.97425697 24.96543318 -6.96723305 20.99202635 -6.95652104 17.01859821 C-6.95346088 15.57498528 -6.95212474 14.13136755 -6.95260935 12.68775146 C-6.95303399 10.73850782 -6.94682941 8.78926598 -6.94020748 6.84003353 C-6.93863358 5.75353825 -6.93705969 4.66704296 -6.9354381 3.54762357 C-6.68996695 -1.07874392 -4.0377513 0.00291801 0 0 Z " fill="#FEFEFE" transform="translate(390.80712890625,250.87060546875)"/>
<path d="M0 0 C0.77415253 -0.0065712 1.54830505 -0.0131424 2.34591675 -0.01991272 C4.91306652 -0.0396571 7.48015781 -0.05130995 10.04736328 -0.0612793 C10.92314152 -0.06535482 11.79891975 -0.06943035 12.70123672 -0.07362938 C17.3353273 -0.0944936 21.96938822 -0.10879457 26.60351562 -0.11816406 C31.39443961 -0.1292377 36.18490031 -0.16364737 40.97566032 -0.20333576 C44.65594356 -0.22945416 48.33611553 -0.23785156 52.01648331 -0.24144554 C53.78275817 -0.24632281 55.54902769 -0.25796912 57.31521225 -0.27648354 C59.78603836 -0.30077728 62.25565405 -0.29992847 64.7265625 -0.29296875 C65.45709839 -0.30577881 66.18763428 -0.31858887 66.94030762 -0.33178711 C70.1450677 -0.29885544 72.08438613 -0.13065371 74.67759895 1.82339191 C77.00092429 4.83604777 77.00783936 6.54212247 77.03857422 10.32250977 C77.05829285 11.56349426 77.07801147 12.80447876 77.09832764 14.08306885 C77.09999066 15.43208776 77.1012216 16.78110727 77.10205078 18.13012695 C77.1170354 19.514485 77.13376315 20.89882519 77.15216064 22.28314209 C77.19581596 25.91960478 77.21582882 29.55582635 77.230896 33.19250488 C77.25047396 36.90623218 77.29244307 40.61969931 77.33251953 44.33325195 C77.40780165 51.61443198 77.45810475 58.89550274 77.49267578 66.17700195 C79.11195339 66.17920179 79.11195339 66.17920179 80.76394367 66.18144608 C107.00238694 66.21800269 133.24070217 66.27740167 159.47903919 66.36090469 C172.1675876 66.40075412 184.85607346 66.43311657 197.54467773 66.44799805 C208.60101993 66.460984 219.65722483 66.48787021 230.71348971 66.53161502 C236.57048106 66.55429871 242.42730264 66.56990851 248.28434181 66.5688858 C253.7927356 66.56814326 259.30075311 66.58592996 264.80904961 66.61816978 C266.83475658 66.62671592 268.86050553 66.62838703 270.88622284 66.62280464 C273.64442761 66.6162139 276.40141778 66.63396602 279.15950012 66.65802002 C279.96786074 66.6502596 280.77622136 66.64249918 281.60907775 66.6345036 C286.98752658 66.71799028 286.98752658 66.71799028 289.48926926 68.99123764 C290.98236348 72.24371008 290.9184494 75.40163148 290.89672852 78.91137695 C290.90702339 80.07304382 290.90702339 80.07304382 290.91752625 81.25817871 C290.93580747 83.81464032 290.9319554 86.37048909 290.92626953 88.92700195 C290.93083035 90.7053243 290.93613562 92.48364488 290.94215393 94.26196289 C290.95108735 97.98762171 290.9486589 101.71306619 290.9387207 105.4387207 C290.92722415 110.21396267 290.94745157 114.98846593 290.97663784 119.76361084 C290.9949791 123.43535055 290.99471166 127.1069125 290.98900032 130.77868652 C290.98884689 132.53935788 290.99490951 134.30004112 291.00729179 136.06066895 C291.02216319 138.52179408 291.01155473 140.98154497 290.99438477 143.44262695 C291.00405273 144.17002075 291.0137207 144.89741455 291.02368164 145.64685059 C290.97532874 148.9551497 290.70907935 150.87221155 288.77381897 153.59790039 C284.94785149 156.24639315 280.93000283 156.30186808 276.37798309 156.31401634 C274.85762349 156.32162816 274.85762349 156.32162816 273.30654955 156.32939374 C272.2000403 156.3298915 271.09353105 156.33038926 269.95349121 156.3309021 C268.18215482 156.33747548 268.18215482 156.33747548 266.37503386 156.34418166 C263.10092466 156.35522641 259.8268424 156.36178781 256.55271888 156.36636281 C253.02028935 156.37233101 249.4878773 156.3839373 245.95545959 156.39465332 C237.42946268 156.41914194 228.90346001 156.43379538 220.37743878 156.44671339 C217.96972125 156.45042666 215.5620043 156.45439974 213.15428734 156.45846605 C198.20230305 156.48369414 183.25031782 156.50574673 168.29831696 156.5181942 C164.83754981 156.52112385 161.3767827 156.52408553 157.91601562 156.52709961 C157.05586702 156.52784566 156.19571841 156.52859171 155.30950469 156.52936037 C141.36160736 156.54202635 127.41383715 156.57526917 113.46599931 156.61690144 C99.14742888 156.65929048 84.82892364 156.68288534 70.51029062 156.68811476 C62.47014732 156.69153135 54.43020305 156.70331636 46.39012146 156.7362175 C39.54653426 156.76417699 32.70318691 156.77523527 25.85954702 156.76402204 C22.36714158 156.7588256 18.87523879 156.76178502 15.38290596 156.78648758 C11.59879962 156.80902452 7.8159712 156.80095444 4.03186035 156.78500366 C2.9253511 156.79888575 1.81884185 156.81276784 0.67880201 156.82707059 C-4.06978607 156.77754107 -6.69136556 156.73043661 -10.68968201 154.01852608 C-12.79395541 150.72891077 -13.13139802 148.98653134 -13.12878418 145.10461426 C-13.14559738 143.27506447 -13.14559738 143.27506447 -13.16275024 141.40855408 C-13.14984039 140.06508922 -13.13642631 138.72162914 -13.12255859 137.37817383 C-13.12606125 135.95698891 -13.13172146 134.53580792 -13.13937378 133.11463928 C-13.15361111 129.26115581 -13.13657128 125.40838683 -13.11308861 121.55497169 C-13.0929673 117.52008977 -13.09885983 113.48523715 -13.10119629 109.45031738 C-13.10114273 102.67468496 -13.08139417 95.89933153 -13.04931641 89.1237793 C-13.0124241 81.29328459 -13.00364098 73.46315532 -13.01061392 65.63258505 C-13.01692193 58.09603541 -13.00615913 50.55961092 -12.98664856 43.02308655 C-12.97847958 39.81745112 -12.97576409 36.6118797 -12.9773407 33.40623474 C-12.97822047 29.63043807 -12.96397888 25.85498798 -12.93811417 22.07928276 C-12.9309598 20.69459654 -12.92886525 19.30987342 -12.9322319 17.92517281 C-12.93595403 16.03322143 -12.91933803 14.14126277 -12.9017334 12.24938965 C-12.89800468 11.19121284 -12.89427597 10.13303604 -12.89043427 9.04279327 C-12.44919429 5.74217066 -11.46558922 3.84819674 -9.50732422 1.17700195 C-6.47607284 -0.33862374 -3.32633991 0.01217588 0 0 Z " fill="#FDFDFD" transform="translate(534.50732421875,599.822998046875)"/>
<path d="M0 0 C1.01158202 -0.01104769 2.02316404 -0.02209538 3.06540006 -0.03347784 C4.17482216 -0.02523708 5.28424425 -0.01699631 6.42728519 -0.00850582 C7.6073217 -0.01545135 8.7873582 -0.02239688 10.00315338 -0.02955288 C13.27971123 -0.04470176 16.55568808 -0.04186291 19.83224642 -0.03139985 C23.36540575 -0.02441823 26.89847148 -0.04039785 30.43160343 -0.05339718 C37.35370093 -0.0750602 44.27563417 -0.0749044 51.19775444 -0.06677163 C56.82310961 -0.06047634 62.44841682 -0.06160434 68.07377148 -0.06804371 C69.27391221 -0.06939619 69.27391221 -0.06939619 70.49829822 -0.070776 C72.12359644 -0.07262717 73.74889465 -0.07448973 75.37419284 -0.07636356 C90.62209471 -0.09295015 105.8699041 -0.08421565 121.11780042 -0.06737798 C135.07224667 -0.05268133 149.0264776 -0.06730733 162.98089611 -0.09614814 C177.30397759 -0.12553079 191.62695966 -0.13651767 205.95006996 -0.12696594 C207.5697543 -0.12594337 209.18943866 -0.12494876 210.80912304 -0.12398243 C211.6060674 -0.12350604 212.40301175 -0.12302965 213.22410594 -0.12253882 C218.84289029 -0.12037313 224.46158069 -0.13018703 230.0803442 -0.14475346 C236.92764818 -0.1622569 243.77467762 -0.16218833 250.62197071 -0.1394018 C254.11637092 -0.12824101 257.61028712 -0.12513771 261.10466671 -0.14370251 C264.89105837 -0.15954273 268.67611389 -0.14476459 272.46244144 -0.12203121 C273.56963282 -0.13386694 274.67682419 -0.14570267 275.81756681 -0.15789706 C283.22045655 -0.0672247 283.22045655 -0.0672247 287.19071293 2.82207584 C289.54936874 6.30506367 289.70607312 9.19180778 289.63945866 13.26226139 C289.65019161 14.40951694 289.65019161 14.40951694 289.6611414 15.57994938 C289.67800062 18.09893526 289.65864581 20.61613452 289.63726139 23.13506413 C289.63809027 24.88953645 289.64055036 26.64400869 289.64457035 28.3984766 C289.64742632 32.07124616 289.63274571 35.74340519 289.60527897 39.41606998 C289.571171 44.12296922 289.57722444 48.82877872 289.59594154 53.53573036 C289.60651051 57.15690027 289.59757515 60.77781665 289.58255672 64.39896297 C289.57737536 66.13449634 289.57785617 67.87005619 289.58410168 69.60558605 C289.58955382 72.03078626 289.569182 74.45442648 289.54180241 76.87944889 C289.55159122 77.95415691 289.55159122 77.95415691 289.5615778 79.05057621 C289.50245694 82.13099066 289.14796772 84.26161521 287.61330509 86.94970036 C283.49620206 89.4096693 279.5060603 89.06778546 274.79570866 89.03618717 C273.22698254 89.04931824 273.22698254 89.04931824 271.62656498 89.06271458 C268.1299574 89.08732746 264.6339454 89.08372061 261.13726139 89.08037663 C258.65938228 89.09252553 256.18151156 89.10650459 253.70365238 89.12220097 C248.41334196 89.15212096 243.12319292 89.1703913 237.83281803 89.17803288 C229.57674672 89.19022246 221.32094367 89.23054935 213.06499577 89.27568913 C210.29793739 89.29049071 207.53087791 89.3050727 204.76381779 89.31954288 C204.07858803 89.32313836 203.39335828 89.32673383 202.68736398 89.33043826 C197.82372007 89.35556091 192.96006851 89.37681715 188.09639835 89.39614201 C165.23401723 89.48756729 142.37347441 89.67356433 119.51247501 89.9428339 C114.9476446 89.99632054 110.38277364 90.04306518 105.81785011 90.08780289 C102.46896437 90.12153878 99.12013676 90.15945878 95.77131176 90.19872952 C94.23841476 90.21598579 92.70549889 90.23164953 91.17256832 90.24560833 C89.11648069 90.26471298 87.06045819 90.29049225 85.00444889 90.31670475 C83.86161442 90.32923283 82.71877995 90.3417609 81.54131413 90.35466862 C79.07211877 90.22118395 79.07211877 90.22118395 78.00835514 91.50615788 C77.91119025 93.32077537 77.88319524 95.13913636 77.88237858 96.95635319 C77.87857182 98.12136356 77.87476505 99.28637394 77.87084293 100.48668766 C77.86981571 101.75639408 77.86878849 103.0261005 77.86773014 104.33428288 C77.85409726 106.31486649 77.84043476 108.29545042 77.8250246 110.276021 C77.78698259 115.1761701 77.75573598 120.07605925 77.75786686 124.97637272 C77.75850197 127.7201923 77.74604908 130.4633393 77.71886539 133.20702457 C77.69349119 135.79451232 77.68715346 138.38227043 77.70165348 140.96984196 C77.68523808 142.14746098 77.66882267 143.32507999 77.65190983 144.53838444 C77.6482642 145.57239384 77.64461857 146.60640324 77.64086246 147.67174625 C76.75030818 151.66252599 75.28869605 153.10305359 72.00835514 155.50615788 C69.1695606 155.98142135 66.9407291 156.15333496 64.11284733 156.08965397 C63.33343784 156.09199039 62.55402836 156.09432682 61.7510004 156.09673405 C59.18505324 156.0983439 56.62092094 156.06437471 54.05523014 156.02959538 C52.27115878 156.02280475 50.48707844 156.01808328 48.70299625 156.01534367 C44.97053212 156.00467779 41.23866874 155.97800545 37.50640202 155.93828678 C32.71207845 155.88727249 27.9180992 155.86225179 23.12353992 155.84735012 C18.55905521 155.83259494 13.99465215 155.80735206 9.43023014 155.77959538 C8.55464199 155.7746846 7.67905384 155.76977383 6.77693272 155.76471424 C4.31329175 155.748511 1.84983864 155.7251109 -0.61371517 155.69902897 C-1.35032375 155.69476902 -2.08693233 155.69050907 -2.84586239 155.68612003 C-7.87652194 155.62128079 -7.87652194 155.62128079 -8.99164486 154.50615788 C-9.09702391 152.57910738 -9.13131843 150.64815484 -9.13881588 148.71823978 C-9.14597118 147.46052265 -9.15312649 146.20280552 -9.16049862 144.90697575 C-9.16333918 143.50017668 -9.16605087 142.09337734 -9.16864681 140.6865778 C-9.17490855 139.215105 -9.18155509 137.74363379 -9.18855953 136.27216434 C-9.2059967 132.26382388 -9.21652873 128.25549537 -9.22476506 124.24712634 C-9.22990959 121.74466 -9.23598558 119.2421974 -9.24227619 116.7397337 C-9.26133607 108.91543418 -9.27556535 101.09114414 -9.28388816 93.26682585 C-9.29366374 84.22513442 -9.31998814 75.1836876 -9.36038905 66.14208239 C-9.39051873 59.16031437 -9.40535404 52.17861658 -9.40866917 45.19678479 C-9.41102336 41.02371341 -9.42003103 36.8509031 -9.44513035 32.67790127 C-9.46836119 28.75197708 -9.47266471 24.82648677 -9.46236897 20.90051174 C-9.46187226 19.45893761 -9.46823228 18.0173425 -9.48192501 16.57583332 C-9.49956358 14.60897675 -9.49017873 12.64193297 -9.47939205 10.67502689 C-9.48178041 9.5738613 -9.48416876 8.47269571 -9.48662949 7.33816147 C-8.53968701 1.92032753 -5.25625657 0.00716819 0 0 Z " fill="#FDFCFD" transform="translate(531.991644859314,249.49384212493896)"/>
<path d="M0 0 C1.3519899 0.00135956 1.3519899 0.00135956 2.73129272 0.00274658 C3.67940323 -0.00397064 4.62751373 -0.01068787 5.60435486 -0.01760864 C8.75113104 -0.03666808 11.89769477 -0.04051706 15.04452515 -0.04266357 C17.22687367 -0.04908678 19.40922131 -0.05581478 21.59156799 -0.06283569 C26.1723429 -0.07482892 30.75304228 -0.0785145 35.33383179 -0.07733154 C41.2052947 -0.07712842 47.07627321 -0.10441449 52.94762135 -0.13887596 C57.45748622 -0.16111027 61.96723398 -0.16517012 66.47714806 -0.16411209 C68.6417069 -0.1664739 70.80626869 -0.17532989 72.9707737 -0.19077682 C75.99936448 -0.21036305 79.02690391 -0.20462705 82.05551147 -0.19256592 C83.39839233 -0.20942444 83.39839233 -0.20942444 84.7684021 -0.22662354 C88.67435 -0.1870772 91.11459509 0.05375997 94.64379883 1.8412323 C97.26828742 5.15211958 97.28392984 7.95610457 97.21859741 12.01177979 C97.22575272 12.78461807 97.23290802 13.55745636 97.24028015 14.35371399 C97.25717437 16.90578521 97.23776025 19.45610124 97.21640015 22.00811768 C97.21722887 23.78404384 97.21968839 25.55996992 97.22370911 27.33589172 C97.2265677 31.05751643 97.21186182 34.77853953 97.18441772 38.50006104 C97.15035936 43.2662999 97.15634415 48.03146122 97.1750803 52.79775143 C97.18565941 56.46528573 97.17670383 60.13257017 97.16169548 63.80008125 C97.1565182 65.5571169 97.15698997 67.3141787 97.16324043 69.07121086 C97.16870279 71.52983363 97.14828584 73.98692532 97.12094116 76.44537354 C97.12746704 77.16917206 97.13399292 77.89297058 97.14071655 78.63870239 C97.07847255 81.93679712 96.59777517 84.2720683 95.15527344 87.24729919 C91.26916709 90.34370029 87.80555388 89.96308706 82.96957397 89.87677002 C81.99523911 89.87910645 81.02090424 89.88144287 80.01704407 89.8838501 C76.79649287 89.88546511 73.57737318 89.85143103 70.35702515 89.81671143 C68.12311826 89.80992389 65.88920422 89.80520056 63.6552887 89.80245972 C58.97533385 89.79177919 54.29585626 89.76506838 49.61605835 89.72540283 C43.60318316 89.67444713 37.59058205 89.64938104 31.57751942 89.63446617 C25.85814961 89.61970936 20.13884497 89.59445819 14.41952515 89.56671143 C13.32096506 89.56180065 12.22240498 89.55688988 11.09055519 89.55183029 C7.99937372 89.53563076 4.90834219 89.51222913 1.81723022 89.48614502 C0.89203583 89.48188507 -0.03315857 89.47762512 -0.98638916 89.47323608 C-7.29739094 89.40838909 -7.29739094 89.40838909 -8.4125061 88.29327393 C-9.14983595 82.71063363 -8.38948629 80.02768044 -5.4203186 75.26983643 C-1.31649057 67.30601427 -1.60979743 59.48373819 -1.79507446 50.68267822 C-1.85026498 47.96804061 -1.8565991 45.25646457 -1.85586548 42.5413208 C-1.87060222 40.79585179 -1.88808338 39.05040332 -1.90859985 37.30499268 C-1.91193832 36.50381516 -1.91527679 35.70263763 -1.91871643 34.87718201 C-2.0767059 28.59073091 -3.53737289 24.09060379 -7.08047485 18.80499268 C-8.85565101 15.45766638 -8.77659831 12.87200502 -8.7250061 9.10577393 C-8.72113892 7.87471924 -8.71727173 6.64366455 -8.71328735 5.37530518 C-8.14435645 -0.45438939 -5.15469365 0.05361395 0 0 Z " fill="#FCFCFD" transform="translate(702.4125061035156,445.70672607421875)"/>
<path d="M0 0 C2.30086631 1.33009778 4.44561069 2.68202197 6.625 4.1875 C7.27106201 4.62602295 7.91712402 5.0645459 8.58276367 5.51635742 C15.56724973 10.30418333 22.35866888 15.35727513 29.15234375 20.41015625 C33.10311357 23.34603485 37.08331468 26.23728993 41.08520508 29.10302734 C42.60017314 30.19269304 44.10926402 31.29058115 45.61206055 32.39697266 C49.00601648 34.89323123 52.38074819 37.26878994 56.015625 39.40234375 C60.96236055 42.43254301 64.8413719 45.32963982 66.390625 51.12890625 C67.14514656 56.02777549 66.97533944 60.41068511 65 65 C61.06262756 70.24982992 55.59908382 73.87459822 50.20947266 77.50390625 C47.19743256 79.54344014 44.36456526 81.75784981 41.5 84 C40.46359375 84.78761719 39.4271875 85.57523438 38.359375 86.38671875 C34.40615433 89.42756646 30.58555303 92.62555234 26.75 95.8125 C23.83883213 98.2150804 20.9210318 100.60942502 18 103 C17.24509277 103.62003906 16.49018555 104.24007812 15.71240234 104.87890625 C13.46843801 106.70884269 11.20629332 108.51348449 8.9375 110.3125 C8.25977539 110.86977783 7.58205078 111.42705566 6.88378906 112.0012207 C2.26606929 115.61244143 -1.05966472 117.16689808 -7 117 C-9.4375 115.5703125 -9.4375 115.5703125 -11 113 C-12.21577625 107.37703483 -12.54744494 101.602211 -11 96 C-8.22063598 92.16603618 -4.84897611 89.80375095 -0.92578125 87.27929688 C1.91628697 85.39131038 4.57633509 83.28699709 7.26635742 81.19042969 C9.43134644 79.5047911 11.61280514 77.84315948 13.80078125 76.1875 C17.59284828 73.31380392 21.36157848 70.41104393 25.125 67.5 C28.45605348 64.92866048 31.79682268 62.4046417 35.25 60 C38.0479497 58.28769823 38.0479497 58.28769823 39 56 C38.41694092 55.72325439 37.83388184 55.44650879 37.2331543 55.16137695 C35.09246268 54.04808625 33.22347319 52.82933097 31.26953125 51.41796875 C30.55740479 50.90451904 29.84527832 50.39106934 29.11157227 49.86206055 C28.35287842 49.30945557 27.59418457 48.75685059 26.8125 48.1875 C26.02093506 47.61362549 25.22937012 47.03975098 24.41381836 46.44848633 C18.17944384 41.90770417 12.0043038 37.28936634 5.94287109 32.51953125 C2.88183695 30.12236206 -0.10471822 27.85870712 -3.5078125 25.96875 C-6.60404406 24.16327482 -8.78017053 22.81890478 -11 20 C-12.14210452 14.46134751 -12.19064487 9.5284214 -11 4 C-7.54669466 -0.32535215 -5.33425824 -1.57637043 0 0 Z " fill="#FCFCFC" transform="translate(616,442)"/>
<path d="M0 0 C7.26 0 14.52 0 22 0 C20.15632103 6.14559656 18.29944683 12.20164423 16.1640625 18.23828125 C15.89237747 19.01295242 15.62069244 19.7876236 15.34077454 20.58576965 C14.74880516 22.2735736 14.15592471 23.96105822 13.56222534 25.64825439 C11.90431775 30.36117969 10.25456214 35.07695325 8.60546875 39.79296875 C8.246772 40.81865967 7.88807526 41.84435059 7.51850891 42.90112305 C1.91980903 58.93220886 -3.58377025 74.99638358 -9.09970093 91.05609226 C-17.14035703 114.46524976 -17.14035703 114.46524976 -20.55859375 124.2421875 C-20.79836441 124.93418243 -21.03813507 125.62617737 -21.28517151 126.33914185 C-22.88345608 130.88345608 -22.88345608 130.88345608 -24 132 C-25.63472882 132.08700342 -27.27314055 132.10701063 -28.91015625 132.09765625 C-29.89951172 132.09443359 -30.88886719 132.09121094 -31.90820312 132.08789062 C-32.94912109 132.07951172 -33.99003906 132.07113281 -35.0625 132.0625 C-36.10728516 132.05798828 -37.15207031 132.05347656 -38.22851562 132.04882812 C-40.81906936 132.03699911 -43.40949746 132.01967834 -46 132 C-44.05145826 124.5045958 -41.79236373 117.18336316 -39.234375 109.875 C-38.87788879 108.84802002 -38.52140259 107.82104004 -38.15411377 106.76293945 C-37.40281401 104.60095996 -36.64975774 102.43959014 -35.89501953 100.27880859 C-34.76311527 97.03755608 -33.63694096 93.79435872 -32.51171875 90.55078125 C-28.9490977 80.30301639 -25.32462867 70.08410651 -21.54489136 59.91439819 C-17.87133033 50.00497558 -14.43623421 40.01162721 -10.97412109 30.02685547 C-7.47665697 19.94816206 -3.89917086 9.93185029 0 0 Z " fill="#FAFBFB" transform="translate(562,437)"/>
<path d="M0 0 C3.66133016 1.19697332 4.31538504 1.85481945 6.25 5.0625 C7.45463399 8.99010875 7.45416102 12.12925789 6.25 16.0625 C3.07373918 19.58798321 -0.64232987 22.09759443 -4.59619141 24.66015625 C-6.98181836 26.21343682 -9.32525112 27.82026619 -11.66796875 29.4375 C-14.95315742 31.70486261 -18.25144594 33.95030634 -21.5625 36.1796875 C-24.74598592 38.34011167 -27.79368118 40.59492744 -30.75 43.0625 C-29.50087524 46.80987427 -27.9561277 47.75227442 -24.875 50.1875 C-23.37259766 51.38632812 -23.37259766 51.38632812 -21.83984375 52.609375 C-20.82019531 53.41890625 -19.80054688 54.2284375 -18.75 55.0625 C-16.07080859 57.26201085 -13.3994644 59.4693617 -10.7421875 61.6953125 C-8.50701374 63.46360924 -6.31228307 65.04825788 -3.9453125 66.6171875 C5.66787114 73.17272139 5.66787114 73.17272139 7.3125 78.51171875 C7.49330619 83.55734137 7.52140741 86.65107969 4.05078125 90.50390625 C1.25 92.0625 1.25 92.0625 -1.52734375 92.21484375 C-6.17811479 90.55184077 -9.51781301 87.73249516 -13.3125 84.625 C-14.92290936 83.33820654 -16.53358794 82.05174994 -18.14453125 80.765625 C-18.93037598 80.13205078 -19.7162207 79.49847656 -20.52587891 78.84570312 C-23.48282695 76.47495137 -26.48633127 74.17324675 -29.5 71.875 C-35.72500426 67.092566 -41.91447178 62.26807007 -48.06445312 57.38964844 C-49.72541859 56.08185466 -51.40017605 54.79370798 -53.078125 53.5078125 C-54.08359375 52.72148438 -55.0890625 51.93515625 -56.125 51.125 C-57.01960938 50.43535156 -57.91421875 49.74570312 -58.8359375 49.03515625 C-60.75 47.0625 -60.75 47.0625 -60.75 43.0625 C-58.56294319 41.11982436 -56.44783118 39.4809068 -54.0625 37.8125 C-52.59279674 36.74871159 -51.12409839 35.68353386 -49.65625 34.6171875 C-48.86476563 34.04709961 -48.07328125 33.47701172 -47.2578125 32.88964844 C-42.80436045 29.64494096 -38.43812916 26.28598246 -34.0625 22.9375 C-32.72094849 21.91450806 -32.72094849 21.91450806 -31.35229492 20.87084961 C-26.89608071 17.47261208 -22.44700977 14.06551113 -18.01293945 10.63842773 C-16.46067027 9.44108193 -14.90237804 8.25155644 -13.34375 7.0625 C-11.75914869 5.84063875 -10.19156265 4.5957464 -8.65625 3.3125 C-5.57946539 0.82948084 -4.01828341 0.06697139 0 0 Z " fill="#FBFBFB" transform="translate(489.75,460.9375)"/>
<path d="M0 0 C0.33 0 0.66 0 1 0 C1.00423194 0.75667686 1.00846388 1.51335371 1.01282406 2.29296017 C1.11598712 20.67782543 1.22460304 39.062651 1.33933926 57.44744778 C1.39469165 66.33807987 1.4481769 75.22871597 1.49731445 84.11938477 C1.54013165 91.86563746 1.58640332 99.61186037 1.63687855 107.3580671 C1.66349942 111.46219169 1.6883529 115.56631031 1.70907402 119.67046928 C1.72860936 123.52897536 1.75274362 127.38742463 1.78049088 131.24588013 C1.78987782 132.66611262 1.79754715 134.08635759 1.80341911 135.50660896 C1.81165239 137.43744977 1.82651802 139.36825898 1.84178162 141.29905701 C1.84823417 142.38216376 1.85468672 143.46527052 1.8613348 144.58119869 C1.7279637 146.94978939 1.7279637 146.94978939 3 148 C5.47337276 148.11628012 7.91921414 148.167988 10.39379883 148.17700195 C11.55480858 148.18685875 11.55480858 148.18685875 12.73927307 148.19691467 C15.31186 148.21669549 17.88438842 148.22832114 20.45703125 148.23828125 C21.77207421 148.24439454 21.77207421 148.24439454 23.1136837 148.25063133 C27.75425356 148.27151301 32.39479366 148.28580531 37.03540039 148.29516602 C41.83420021 148.30623181 46.63253648 148.34062748 51.43117237 148.38033772 C55.11574681 148.40645898 58.80021011 148.41485386 62.484869 148.41844749 C64.2539349 148.42332552 66.02299544 148.43497397 67.79197121 148.45348549 C70.26769526 148.47778107 72.74221132 148.47692984 75.21801758 148.4699707 C75.95012451 148.48278076 76.68223145 148.49559082 77.43652344 148.50878906 C80.73148938 148.47500271 82.7015523 148.20240841 85.45423889 146.33552551 C87.39272845 143.40661768 87.50450368 141.66235005 87.51416016 138.16162109 C87.5274234 136.98715424 87.54068665 135.81268738 87.55435181 134.60263062 C87.54930634 133.33899689 87.54426086 132.07536316 87.5390625 130.7734375 C87.55707698 128.78887565 87.57510112 126.80431383 87.59370995 124.81975746 C87.61496091 122.04375245 87.61834883 119.26783593 87.62164307 116.49176025 C87.62936107 111.62506697 87.65616794 106.75852359 87.69662476 101.89199829 C87.71635534 99.30121723 87.72557892 96.71033171 87.72354126 94.11947632 C87.73050018 92.95131378 87.73745911 91.78315125 87.74462891 90.57958984 C87.74588776 89.54796722 87.74714661 88.5163446 87.7484436 87.45346069 C88 85 88 85 90 83 C92.68331586 82.80671228 95.26301488 82.73954667 97.94717407 82.75949097 C98.77784405 82.75778212 99.60851403 82.75607327 100.46435583 82.75431263 C103.26359555 82.75100349 106.06259856 82.76204475 108.86181641 82.77294922 C110.86208592 82.77351303 112.86235585 82.77319737 114.86262512 82.77206421 C120.30658391 82.7714885 125.75045524 82.78327798 131.19439363 82.79721212 C136.87856387 82.80968327 142.56273592 82.81088712 148.24691772 82.81326294 C159.01686619 82.81948837 169.78677424 82.83591353 180.55670488 82.85596192 C192.81527901 82.87828791 205.07385504 82.88930603 217.33244443 82.89935279 C242.5549854 82.92027886 267.77749044 82.95547543 293 83 C293 83.33 293 83.66 293 84 C288.2582333 84.93338808 283.65347223 85.15189685 278.83755493 85.15821838 C278.03205212 85.16315636 277.22654931 85.16809434 276.39663732 85.17318195 C273.70664693 85.1884988 271.0166803 85.19690176 268.32666016 85.20532227 C266.39476311 85.21490536 264.46286814 85.2249157 262.53097534 85.23532104 C257.29184162 85.26232939 252.05269893 85.28336099 246.81353426 85.30332303 C241.33623404 85.3252077 235.85896135 85.35258425 230.38168335 85.37937927 C220.01210301 85.42927261 209.64250736 85.47422391 199.27289712 85.51740164 C187.4664348 85.56680272 175.6600001 85.6217102 163.8535645 85.67708123 C139.56906878 85.79084971 115.28454655 85.89769993 91 86 C90.99191315 86.6882486 90.98382629 87.37649719 90.97549438 88.08560181 C90.88936433 95.25598469 90.7898566 102.42609381 90.68261719 109.59619141 C90.64328912 112.27131121 90.60950232 114.94633827 90.578125 117.62158203 C90.53240435 121.46926032 90.47442007 125.3165894 90.4140625 129.1640625 C90.40251129 130.35802643 90.39096008 131.55199036 90.37905884 132.78213501 C90.35918915 133.90284393 90.33931946 135.02355286 90.31884766 136.17822266 C90.30552399 137.15973297 90.29220032 138.14124329 90.2784729 139.15249634 C89.96315491 142.37675666 89.24369641 145.01012728 88 148 C83.57074947 151.11148138 79.38958124 151.43735797 74.13037109 151.40405273 C73.36538803 151.41091599 72.60040497 151.41777924 71.8122406 151.42485046 C69.29911425 151.44306141 66.78661526 151.43929075 64.2734375 151.43359375 C62.52039386 151.43815692 60.76735201 151.4434629 59.01431274 151.44947815 C55.34768383 151.45839695 51.68127289 151.45599856 48.01464844 151.44604492 C43.31568834 151.43453161 38.61747709 151.45480875 33.91861534 151.48396206 C30.30178046 151.50229994 26.68512607 151.50203688 23.06825638 151.49632454 C21.33549572 151.49617116 19.60272295 151.50222903 17.87000656 151.51461601 C15.44980385 151.52948654 13.03099865 151.51888095 10.61083984 151.50170898 C9.53848839 151.51621094 9.53848839 151.51621094 8.44447327 151.53100586 C5.26802556 151.48378673 3.37875424 151.28699325 0.8154974 149.34473801 C-1.49870175 146.35592034 -1.49611528 144.73779678 -1.48774719 140.98298645 C-1.49469101 139.75046646 -1.50163483 138.51794647 -1.50878906 137.24807739 C-1.4962281 135.88518933 -1.48327551 134.52230483 -1.4699707 133.15942383 C-1.47047955 131.72204937 -1.4727356 130.28467463 -1.47660828 128.8473053 C-1.48202836 124.94658627 -1.46261642 121.04634204 -1.43850732 117.14570832 C-1.41722592 113.06758734 -1.41780682 108.98946835 -1.41581726 104.91130066 C-1.4093698 98.06586522 -1.3881197 91.22060849 -1.35668945 84.37524414 C-1.3163506 75.57781482 -1.29899539 66.7805018 -1.28938007 57.98299122 C-1.28109097 50.42961219 -1.26385193 42.87625799 -1.24434257 35.32290053 C-1.23826817 32.88929263 -1.23312943 30.45568378 -1.2279911 28.02207375 C-1.21923118 24.20619942 -1.20494492 20.39038324 -1.1862812 16.57454491 C-1.18014162 15.17043063 -1.17570099 13.76630779 -1.17303848 12.36218262 C-1.1690781 10.45346059 -1.15832838 8.54475615 -1.14717102 6.63606262 C-1.14289754 5.56552548 -1.13862406 4.49498835 -1.13422108 3.39201069 C-1 1 -1 1 0 0 Z " fill="#000000" transform="translate(521,256)"/>
<path d="M0 0 C2.95486394 -0.00296366 5.90972428 -0.00707315 8.86458635 -0.01150417 C18.13523709 -0.02508443 27.40587933 -0.03480705 36.6765393 -0.03870606 C47.33948935 -0.04321851 58.00231325 -0.06095162 68.66522491 -0.08970666 C76.95190946 -0.11127507 85.23855825 -0.1214071 93.52527058 -0.12274718 C98.459692 -0.12379506 103.39399322 -0.12970437 108.32838488 -0.1475668 C112.94647474 -0.16397206 117.56435274 -0.16624013 122.18246126 -0.15742779 C123.87763838 -0.15665441 125.57282664 -0.16103953 127.26797533 -0.17088604 C129.5757992 -0.18351108 131.88286065 -0.17778219 134.19067812 -0.16730404 C135.48282417 -0.1687706 136.77497023 -0.17023716 138.10627222 -0.17174816 C141.21670961 0.20018864 141.21670961 0.20018864 144.21670961 3.20018864 C75.57670961 3.20018864 6.93670961 3.20018864 -63.78329039 3.20018864 C-63.78329039 2.54018864 -63.78329039 1.88018864 -63.78329039 1.20018864 C-42.5262321 0.04721547 -21.2812257 0.02029908 0 0 Z " fill="#242526" transform="translate(678.7832903862,663.7998113632202)"/>
<path d="M0 0 C0.84056946 0.02032288 1.68113892 0.04064575 2.54718018 0.06158447 C3.44523376 0.10410339 4.34328735 0.14662231 5.26855469 0.19042969 C6.19512878 0.21828552 7.12170288 0.24614136 8.07635498 0.27484131 C11.03205738 0.36811632 13.98580699 0.48983577 16.94042969 0.61230469 C18.94557497 0.68058836 20.95078434 0.74701686 22.95605469 0.81152344 C27.86851565 0.97360945 32.77941715 1.16120992 37.69042969 1.36230469 C37.69042969 1.69230469 37.69042969 2.02230469 37.69042969 2.36230469 C36.42859863 2.38212402 35.16676758 2.40194336 33.86669922 2.42236328 C29.19624477 2.49829234 24.52610708 2.58702881 19.85595703 2.6796875 C17.83258303 2.7180299 15.80913963 2.7528734 13.78564453 2.78417969 C10.88125766 2.82971638 7.97735074 2.88772878 5.07324219 2.94824219 C4.16486603 2.9597934 3.25648987 2.9713446 2.32058716 2.98324585 C1.05950638 3.01305038 1.05950638 3.01305038 -0.22705078 3.04345703 C-0.96873505 3.0567807 -1.71041931 3.07010437 -2.47457886 3.08383179 C-4.55690671 3.21430198 -4.55690671 3.21430198 -6.30957031 5.36230469 C-6.6181561 8.01246246 -6.6181561 8.01246246 -6.57128334 11.16818428 C-6.57874883 12.4122552 -6.58621433 13.65632612 -6.59390604 14.93809617 C-6.59212897 16.33138116 -6.59016804 17.72466593 -6.58804321 19.11795044 C-6.59304182 20.58810862 -6.59891633 22.05826405 -6.60559595 23.52841556 C-6.62146269 27.58287108 -6.62483027 31.63725745 -6.62624454 35.69174027 C-6.62992701 40.058501 -6.64507662 44.42522326 -6.65885925 48.79196167 C-6.68117233 56.36247483 -6.69616122 63.93297437 -6.70622635 71.50351334 C-6.72078948 82.44934238 -6.74631957 93.39512402 -6.77455764 104.34092532 C-6.82006876 122.09820201 -6.85666566 139.85548551 -6.88769531 157.61279297 C-6.91786319 174.86606034 -6.95220532 192.11931105 -6.9921875 209.37255859 C-6.99464905 210.43540357 -6.9971106 211.49824855 -6.99964674 212.59330095 C-7.012021 217.92508921 -7.0244776 223.25687728 -7.03697515 228.58866525 C-7.14060761 272.84652183 -7.22978948 317.10439912 -7.30957031 361.36230469 C-9.30957031 359.36230469 -9.30957031 359.36230469 -9.55911797 357.54096812 C-9.5589006 356.79624651 -9.55868324 356.05152489 -9.55845928 355.28423595 C-9.56535748 353.99531784 -9.56535748 353.99531784 -9.57239503 352.68036097 C-9.56467968 351.25511252 -9.56467968 351.25511252 -9.55680847 349.80107117 C-9.55922289 348.79508922 -9.5616373 347.78910727 -9.56412488 346.75264102 C-9.5697936 343.35513036 -9.56107236 339.95780517 -9.55249023 336.56030273 C-9.55356294 334.12965341 -9.55550146 331.69900434 -9.5582428 329.26835632 C-9.56261006 323.31243381 -9.55760261 317.3565842 -9.5483925 311.40067258 C-9.53793499 304.37693767 -9.53808124 297.35321434 -9.53856508 290.32947312 C-9.53906754 277.68016797 -9.52988577 265.03088785 -9.51538086 252.3815918 C-9.50156196 240.32331879 -9.49426739 228.26506814 -9.49487305 216.20678711 C-9.49492276 214.73219613 -9.49497009 213.25760516 -9.49501503 211.78301418 C-9.49503757 211.05430451 -9.49506011 210.32559484 -9.49508334 209.57480306 C-9.49510395 208.84696908 -9.49512456 208.11913509 -9.4951458 207.36924553 C-9.49516674 206.64244712 -9.49518769 205.91564872 -9.49520927 205.16682612 C-9.49570774 170.52422652 -9.43602936 135.88200132 -9.32196712 101.23959255 C-9.30974134 97.41579577 -9.29866367 93.59199729 -9.28791046 89.76819611 C-9.24834055 76.06865246 -9.18735369 62.369545 -9.0882206 48.67029762 C-9.05960526 44.64027695 -9.03985941 40.61037155 -9.02818871 36.58026695 C-9.01440157 31.98707723 -8.98203829 27.39442488 -8.93394065 22.80146956 C-8.91974693 21.15098527 -8.91222632 19.50042767 -8.91196084 17.84988236 C-8.91049754 15.62743258 -8.8847587 13.40658668 -8.85249329 11.18440247 C-8.84001792 9.33793987 -8.84001792 9.33793987 -8.82729053 7.454175 C-7.96499294 2.30445857 -5.20079363 -0.18798049 0 0 Z " fill="#000000" transform="translate(390.3095703125,247.6376953125)"/>
<path d="M0 0 C1.10175568 -0.00374634 1.10175568 -0.00374634 2.22576904 -0.00756836 C4.27680661 -0.01335751 6.32786272 -0.01082394 8.37890625 -0.0078125 C9.53076416 -0.00668457 10.68262207 -0.00555664 11.86938477 -0.00439453 C14.4375 0.125 14.4375 0.125 15.4375 1.125 C16.95219448 1.35692865 18.47504562 1.53715238 20 1.6875 C21.23943359 1.81318359 21.23943359 1.81318359 22.50390625 1.94140625 C23.14199219 2.00199219 23.78007812 2.06257812 24.4375 2.125 C24.4375 2.455 24.4375 2.785 24.4375 3.125 C6.90910853 3.21548858 -10.61073937 2.94834977 -28.13598633 2.66143799 C-31.91811201 2.5998872 -35.70026822 2.54027148 -39.48242188 2.48046875 C-46.84247821 2.36381974 -54.20249923 2.24510889 -61.5625 2.125 C-61.5625 1.795 -61.5625 1.465 -61.5625 1.125 C-41.0437022 0.55696378 -20.52774824 0.02475731 0 0 Z " fill="#20222C" transform="translate(447.5625,248.875)"/>
<path d="M0 0 C4.57684913 2.92390514 8.69936122 6.14654245 12.8125 9.6875 C13.39708984 10.18572266 13.98167969 10.68394531 14.58398438 11.19726562 C18.78447421 14.78447421 18.78447421 14.78447421 20 16 C20.07258946 18.18639453 20.08373783 20.37500389 20.0625 22.5625 C20.05347656 23.76003906 20.04445313 24.95757813 20.03515625 26.19140625 C20.02355469 27.11824219 20.01195312 28.04507813 20 29 C19.34 29 18.68 29 18 29 C18.09023438 28.18917969 18.18046875 27.37835937 18.2734375 26.54296875 C18.51833655 20.01686401 18.51833655 20.01686401 15.62695312 14.35302734 C12.22802009 11.24317882 8.4819585 8.63000989 4.60986328 6.14404297 C2.85552482 4.89732929 1.41353516 3.62393669 0 2 C0 1.34 0 0.68 0 0 Z " fill="#050607" transform="translate(478,520)"/>
<path d="M0 0 C3.07842238 3.07842238 2.40829696 6.68838165 2.4375 10.8125 C2.48680664 12.02389648 2.48680664 12.02389648 2.53710938 13.25976562 C2.57679912 17.66532729 2.4509696 19.43370047 -0.3828125 22.9921875 C-2.55964939 24.66217878 -4.46859687 25.96868762 -7 27 C-5.19587357 23.73539027 -4.16605307 22.11070205 -1 20 C-0.60144599 17.98654169 -0.60144599 17.98654169 -0.7421875 15.68359375 C-0.75636719 14.83732422 -0.77054688 13.99105469 -0.78515625 13.11914062 C-0.81480469 12.23419922 -0.84445312 11.34925781 -0.875 10.4375 C-0.91817693 8.68629452 -0.95745354 6.93498703 -0.9921875 5.18359375 C-1.01651855 4.40556396 -1.04084961 3.62753418 -1.06591797 2.82592773 C-1 1 -1 1 0 0 Z " fill="#050505" transform="translate(681,487)"/>
<path d="M0 0 C0.66 0.33 1.32 0.66 2 1 C2.22588024 9.59599799 1.91958262 17.60182604 0 26 C-0.66 26 -1.32 26 -2 26 C-1.34 17.42 -0.68 8.84 0 0 Z " fill="#050608" transform="translate(381,608)"/>
<path d="M0 0 C1.65 0 3.3 0 5 0 C1.52111552 5.94309431 -3.3097359 11.76991197 -10 14 C-9.67 12.35 -9.34 10.7 -9 9 C-8.071875 8.87625 -8.071875 8.87625 -7.125 8.75 C-4.81562433 8.18741541 -4.81562433 8.18741541 -3.75 5.9375 C-3.5025 5.298125 -3.255 4.65875 -3 4 C-2.34 4 -1.68 4 -1 4 C-0.67 2.68 -0.34 1.36 0 0 Z " fill="#121317" transform="translate(368,656)"/>
<path d="M0 0 C0.66 0.33 1.32 0.66 2 1 C1.01 1.99 0.02 2.98 -1 4 C-1.66 3.67 -2.32 3.34 -3 3 C-2.01 2.01 -1.02 1.02 0 0 Z M-5 4 C-4.34 4.33 -3.68 4.66 -3 5 C-5 8 -5 8 -8 9 C-8.99 10.485 -8.99 10.485 -10 12 C-10.99 12 -11.98 12 -13 12 C-13.33 12.99 -13.66 13.98 -14 15 C-14.33 14.34 -14.66 13.68 -15 13 C-11.83047153 9.73991357 -8.60062011 6.77762123 -5 4 Z " fill="#131213" transform="translate(632,545)"/>
<path d="M0 0 C0.66 0 1.32 0 2 0 C2.10841951 1.91541138 2.18578079 3.83259773 2.25 5.75 C2.29640625 6.81734375 2.3428125 7.8846875 2.390625 8.984375 C1.91735478 12.63802112 0.80844958 13.72228105 -2 16 C-2.66 15.67 -3.32 15.34 -4 15 C-3.27876953 14.18789063 -3.27876953 14.18789063 -2.54296875 13.359375 C-0.68676442 10.52102712 -0.51262344 8.61207374 -0.3125 5.25 C-0.21388672 3.77273438 -0.21388672 3.77273438 -0.11328125 2.265625 C-0.07589844 1.51796875 -0.03851563 0.7703125 0 0 Z " fill="#020202" transform="translate(496,466)"/>
<path d="M0 0 C0.33 0 0.66 0 1 0 C2.06343588 13.26762864 2.06343588 13.26762864 -0.453125 17.3671875 C-2.27687505 18.9687159 -3.72691659 20.14333473 -6 21 C-6.99 20.67 -7.98 20.34 -9 20 C-7.8803014 18.99406757 -6.7540588 17.9954151 -5.625 17 C-4.99851562 16.443125 -4.37203125 15.88625 -3.7265625 15.3125 C-2 14 -2 14 0 14 C0 9.38 0 4.76 0 0 Z " fill="#070607" transform="translate(477,434)"/>
<path d="M0 0 C2.34402262 3.66253535 2.2947685 6.72585673 2 11 C1 14.4375 1 14.4375 0 17 C-0.33 17 -0.66 17 -1 17 C-1.12036664 11.22240116 -0.8320582 5.72040011 0 0 Z " fill="#1E1E21" transform="translate(473,619)"/>
<path d="M0 0 C0.33 0 0.66 0 1 0 C1 4.62 1 9.24 1 14 C2.32 14.66 3.64 15.32 5 16 C4.67 16.99 4.34 17.98 4 19 C2.02 17.35 0.04 15.7 -2 14 C-1.67 13.34 -1.34 12.68 -1 12 C-0.77141886 9.9625237 -0.58975722 7.91959697 -0.4375 5.875 C-0.35371094 4.77929688 -0.26992188 3.68359375 -0.18359375 2.5546875 C-0.12300781 1.71164062 -0.06242188 0.86859375 0 0 Z " fill="#212225" transform="translate(604,448)"/>
<path d="M0 0 C2.9719385 1.12451727 5.33440687 2.22293791 8 4 C7.67 4.99 7.34 5.98 7 7 C4.0280615 5.87548273 1.66559313 4.77706209 -1 3 C-0.67 2.01 -0.34 1.02 0 0 Z " fill="#121112" transform="translate(240,736)"/>
<path d="M0 0 C0.66 0.33 1.32 0.66 2 1 C0.35 2.32 -1.3 3.64 -3 5 C-3.66 4.67 -4.32 4.34 -5 4 C-3.35 2.68 -1.7 1.36 0 0 Z M-7 5 C-5 6 -5 6 -4 8 C-5.65 8.33 -7.3 8.66 -9 9 C-9.33 9.99 -9.66 10.98 -10 12 C-10.66 11.34 -11.32 10.68 -12 10 C-10.35 8.35 -8.7 6.7 -7 5 Z " fill="#141414" transform="translate(451,464)"/>
<path d="M0 0 C3.45508381 1.1516946 4.10703624 1.98846674 6 5 C6.6875 7.25 6.6875 7.25 7 9 C0.42857143 5 0.42857143 5 -1 1 C-0.67 0.67 -0.34 0.34 0 0 Z " fill="#15161A" transform="translate(289,659)"/>
<path d="M0 0 C0.66 0.33 1.32 0.66 2 1 C0.35 2.32 -1.3 3.64 -3 5 C-3.66 4.67 -4.32 4.34 -5 4 C-3.35 2.68 -1.7 1.36 0 0 Z M-7 5 C-6.34 5.33 -5.68 5.66 -5 6 C-5.6875 7.9375 -5.6875 7.9375 -7 10 C-9.625 10.75 -9.625 10.75 -12 11 C-10.86695008 7.60085025 -9.87481525 6.94745549 -7 5 Z " fill="#141415" transform="translate(434,476)"/>
<path d="M0 0 C1.32 0 2.64 0 4 0 C3.34 2.31 2.68 4.62 2 7 C1.34 6.67 0.68 6.34 0 6 C-0.66 6.66 -1.32 7.32 -2 8 C-1.125 1.125 -1.125 1.125 0 0 Z " fill="#101213" transform="translate(555,446)"/>
<path d="M0 0 C0.33 0 0.66 0 1 0 C1.33 5.94 1.66 11.88 2 18 C-1 15 -1 15 -1.07421875 11.42578125 C-0.96149977 10.05326192 -0.83199844 8.68203828 -0.6875 7.3125 C-0.62626953 6.61060547 -0.56503906 5.90871094 -0.50195312 5.18554688 C-0.34897376 3.4557033 -0.17637398 1.72761503 0 0 Z " fill="#26282D" transform="translate(186,624)"/>
<path d="M0 0 C1 2 1 2 0.29296875 4.12890625 C-0.07183594 4.93199219 -0.43664062 5.73507812 -0.8125 6.5625 C-1.16957031 7.36816406 -1.52664063 8.17382812 -1.89453125 9.00390625 C-3 11 -3 11 -5 12 C-4.55149342 10.18504338 -4.09090429 8.37306866 -3.625 6.5625 C-3.36976563 5.55316406 -3.11453125 4.54382813 -2.8515625 3.50390625 C-2 1 -2 1 0 0 Z " fill="#17181A" transform="translate(554,526)"/>
<path d="M0 0 C1 2 1 2 0.29296875 4.12890625 C-0.07183594 4.93199219 -0.43664062 5.73507812 -0.8125 6.5625 C-1.16957031 7.36816406 -1.52664063 8.17382812 -1.89453125 9.00390625 C-3 11 -3 11 -5 12 C-4.55149342 10.18504338 -4.09090429 8.37306866 -3.625 6.5625 C-3.36976563 5.55316406 -3.11453125 4.54382813 -2.8515625 3.50390625 C-2 1 -2 1 0 0 Z " fill="#151618" transform="translate(562,503)"/>
<path d="M0 0 C4.95 0.33 9.9 0.66 15 1 C15 1.33 15 1.66 15 2 C10.38 2.33 5.76 2.66 1 3 C0.67 2.01 0.34 1.02 0 0 Z " fill="#38383A" transform="translate(303,759)"/>
<path d="M0 0 C1.13643966 3.40931897 0.86747764 4.00335456 -0.4375 7.1875 C-0.72496094 7.90292969 -1.01242187 8.61835938 -1.30859375 9.35546875 C-1.53675781 9.89816406 -1.76492188 10.44085938 -2 11 C-2.66 11 -3.32 11 -4 11 C-3.39301257 6.87248551 -1.96189209 3.6678852 0 0 Z " fill="#040405" transform="translate(548,472)"/>
<path d="M0 0 C1.5625 1.25 1.5625 1.25 3 3 C2.6875 5.1875 2.6875 5.1875 2 7 C0.68 7.33 -0.64 7.66 -2 8 C-1.34 5.36 -0.68 2.72 0 0 Z " fill="#171719" transform="translate(541,559)"/>
<path d="M0 0 C1.98 0 3.96 0 6 0 C6 1.32 6 2.64 6 4 C3.69 3.34 1.38 2.68 -1 2 C-0.67 1.34 -0.34 0.68 0 0 Z " fill="#121317" transform="translate(307,672)"/>
<path d="M0 0 C0.66 0 1.32 0 2 0 C2 0.66 2 1.32 2 2 C2.66 2 3.32 2 4 2 C4 3.65 4 5.3 4 7 C3.34 7 2.68 7 2 7 C0.5393715 4.35261084 0 3.10551666 0 0 Z " fill="#111215" transform="translate(282,649)"/>
<path d="M0 0 C-1.13474948 3.40424844 -1.96811304 4.21653709 -5 6 C-5.99 5.67 -6.98 5.34 -8 5 C-2.25 0 -2.25 0 0 0 Z " fill="#131619" transform="translate(646,505)"/>
<path d="M0 0 C1.10844919 3.32534757 0.84454356 5.62182575 0 9 C-1.5625 7.8125 -1.5625 7.8125 -3 6 C-2.8125 3.375 -2.8125 3.375 -2 1 C-1.34 0.67 -0.68 0.34 0 0 Z " fill="#131214" transform="translate(565,495)"/>
<path d="M0 0 C0.66 0 1.32 0 2 0 C1.3125 2.4375 1.3125 2.4375 0 5 C-2.625 5.8125 -2.625 5.8125 -5 6 C-3.38405168 3.95880212 -1.7143618 1.95927063 0 0 Z " fill="#060607" transform="translate(824,751)"/>
<path d="M0 0 C0.33 0 0.66 0 1 0 C1.33 3.3 1.66 6.6 2 10 C1.01 9.67 0.02 9.34 -1 9 C-0.67 6.03 -0.34 3.06 0 0 Z " fill="#1B1D22" transform="translate(188,645)"/>
<path d="M0 0 C0.66 0.33 1.32 0.66 2 1 C0.68 1.99 -0.64 2.98 -2 4 C-1.34 2.68 -0.68 1.36 0 0 Z M-3 4 C-2.67 4.99 -2.34 5.98 -2 7 C-3.65 7.33 -5.3 7.66 -7 8 C-5.68 6.68 -4.36 5.36 -3 4 Z " fill="#111214" transform="translate(471,468)"/>
<path d="M0 0 C3.06393013 -0.25532751 4.63233212 -0.21861333 7.3125 1.375 C7.869375 1.91125 8.42625 2.4475 9 3 C9 3.66 9 4.32 9 5 C5.54074837 3.7508258 2.85306797 2.32472205 0 0 Z " fill="#050607" transform="translate(487,459)"/>
</svg>
